<!DOCTYPE svg PUBLIC "-//W3C//DTD SVG 1.1//EN" "http://www.w3.org/Graphics/SVG/1.1/DTD/svg11.dtd">
<!-- Uploaded to: SVG Repo, www.svgrepo.com, Transformed by: SVG Repo Mixer Tools -->
<svg width="800px" height="800px" viewBox="-5.76 -5.76 59.52 59.52" id="Layer_2" data-name="Layer 2" xmlns="http://www.w3.org/2000/svg" fill="#000000" stroke="#000000" stroke-width="0.9120000000000001">
<g id="SVGRepo_bgCarrier" stroke-width="0" transform="translate(0,0), scale(1)">
<rect x="-5.76" y="-5.76" width="59.52" height="59.52" rx="29.76" fill="#f35e5e" strokewidth="0"/>
</g>
<g id="SVGRepo_tracerCarrier" stroke-linecap="round" stroke-linejoin="round" stroke="#262626" stroke-width="1.344">
<defs>
<style>.cls-1{fill:none;stroke:#262626;stroke-linecap:round;stroke-linejoin:round;}</style>
</defs>
<path class="cls-1" d="M2.67,23.63l41.11-8C33.4-6.39,2.86,1.37,2.67,23.63Z"/>
<path class="cls-1" d="M9.7,25l7.62-1.55C18.09,29.25,10,29.65,9.7,25Z"/>
<path class="cls-1" d="M28.5,21.34l7.62-1.55C36.89,25.62,28.8,26,28.5,21.34Z"/>
<path class="cls-1" d="M4.41,32.68l40.92-8.07C45.58,45.27,15.66,55.16,4.41,32.68Z"/>
</g>
<g id="SVGRepo_iconCarrier">
<defs>
<style>.cls-1{fill:none;stroke:#262626;stroke-linecap:round;stroke-linejoin:round;}</style>
</defs>
<path class="cls-1" d="M2.67,23.63l41.11-8C33.4-6.39,2.86,1.37,2.67,23.63Z"/>
<path class="cls-1" d="M9.7,25l7.62-1.55C18.09,29.25,10,29.65,9.7,25Z"/>
<path class="cls-1" d="M28.5,21.34l7.62-1.55C36.89,25.62,28.8,26,28.5,21.34Z"/>
<path class="cls-1" d="M4.41,32.68l40.92-8.07C45.58,45.27,15.66,55.16,4.41,32.68Z"/>
</g>
</svg>